<?xml version="1.0" encoding="utf-8"?>
<!-- Generator: Adobe Illustrator 17.1.0, SVG Export Plug-In . SVG Version: 6.00 Build 0)  -->
<!DOCTYPE svg PUBLIC "-//W3C//DTD SVG 1.1//EN" "http://www.w3.org/Graphics/SVG/1.1/DTD/svg11.dtd">
<svg version="1.1" xmlns="http://www.w3.org/2000/svg" xmlns:xlink="http://www.w3.org/1999/xlink" x="0px" y="0px"
	 viewBox="0 0 225 126" enable-background="new 0 0 225 126" xml:space="preserve">
<g id="background" display="none">
	<rect display="inline" fill="#B0BEC5" width="225" height="126"/>
</g>
<g id="label">
</g>
<g id="art">
	<path d="M112,103c-22.1,0-40-17.9-40-40s17.9-40,40-40s40,17.9,40,40S134.1,103,112,103z M112,25c-21,0-38,17-38,38s17,38,38,38
		s38-17,38-38S133,25,112,25z"/>
	<circle cx="112" cy="24" r="4"/>
	<circle cx="112" cy="102" r="4"/>
	<circle cx="73" cy="63" r="4"/>
	<circle cx="151" cy="63" r="4"/>
	<path d="M126,55h-2v-8.1c-3.6,1.6-10.9,1.7-12,1.7c-1.4,0-14-0.1-14-3.9L98,42.9l6.9-5.1l0.1,3.3l5.4-2.3l-0.2,1.9l6.1-2.6l-0.2,4
		l9.9,2V55z M100,44.6c0.6,0.7,4.9,2,12,2c4.7,0,8.3-0.6,10.2-1.2l-8.2-1.7l0.1-2.5l-6.4,2.7l0.2-1.9l-4.9,2.1l-0.1-2.4l-3,2.2
		L100,44.6z"/>
	<rect x="98" y="45" width="2" height="10"/>
	<rect x="98" y="58" width="2" height="10"/>
	<path d="M112,58.9c-1.4,0-14,0.1-14-3.9h2c0,0,0-0.3,0-0.3c0.4,0.7,4.8,1.9,12,1.9s11.5-1.2,12-1.9c0,0,0,0.2,0,0.2h2
		C126,59,113.4,58.9,112,58.9z"/>
	<path d="M112,61.9c-1.4,0-14,0.1-14-3.9h2c0,0,0-0.3,0-0.3c0.4,0.7,4.8,1.9,12,1.9s11.5-1.2,12-1.9c0,0,0,0.2,0,0.2h2
		C126,62,113.4,61.9,112,61.9z"/>
	<rect x="124" y="58" width="2" height="10"/>
	<path d="M112,71.9c-1.4,0-14,0.1-14-3.9h2c0,0,0-0.3,0-0.3c0.4,0.7,4.8,1.9,12,1.9s11.5-1.2,12-1.9c0,0,0,0.2,0,0.2h2
		C126,72,113.4,71.9,112,71.9z"/>
	<rect x="98" y="71" width="2" height="10"/>
	<path d="M112,74.9c-1.4,0-14,0.1-14-3.9h2c0,0,0-0.3,0-0.3c0.4,0.7,4.8,1.9,12,1.9s11.5-1.2,12-1.9c0,0,0,0.2,0,0.2h2
		C126,75,113.4,74.9,112,74.9z"/>
	<rect x="124" y="71" width="2" height="10"/>
	<path d="M112,84.9c-1.4,0-14,0.1-14-3.9h2c0,0,0-0.3,0-0.3c0.4,0.7,4.8,1.9,12,1.9s11.5-1.2,12-1.9c0,0,0,0.2,0,0.2h2
		C126,85,113.4,84.9,112,84.9z"/>
	<g id="ic_x5F_add_x0D_">
	</g>
</g>
<g id="Guides">
</g>
</svg>
